# xmcd
#
# Track frame offsets: 
#        150
#        54582
#        123974
#        141863
#        180079
#        196198
#        206636
#        228327
#
# Disc length: 3093 seconds
#
# Revision: 1
# Processed by: cddbd v1.5.2PL0 Copyright (c) Steve Scherf et al.
# Submitted via: ExactAudioCopy v0.99pb4
#
DISCID=660c1308
DTITLE=Jimi Hendrix - Complete McLaughlin Jam
DYEAR=1969
DGENRE=Psychedelic Rock
TTITLE0=Driving south (1969-03-25)
TTITLE1=Everythings gonna be alright - Jam (1969-03-25)
TTITLE2=Instrumental jam (1969-05-07)
TTITLE3=Earth Blues jam (1969-05-07)
TTITLE4=Instrumental jam (1969-05-07)
TTITLE5=The things I used to do #1 (1969-05-07)
TTITLE6=Ships passing in the night (1969-05-07)
TTITLE7=The things i used to do #2
EXTD=
EXTT0=
EXTT1=
EXTT2=
EXTT3=
EXTT4=
EXTT5=
EXTT6=
EXTT7=
PLAYORDER=
